<?xml version="1.0" encoding="UTF-8"?><svg id="a" xmlns="http://www.w3.org/2000/svg" viewBox="0 0 998.43 655.89"><defs><style>.b{fill:#aa612e;}</style></defs><g><g><path class="b" d="M347.35,241.32l9.47-1.34-2.2,30.83c-.08,1.1,.88,2,1.98,1.85l8.55-1.21c.81-.11,1.43-.78,1.49-1.6l4.27-59.95c.08-1.1-.88-2-1.98-1.85l-8.55,1.21c-.81,.11-1.43,.78-1.49,1.6l-1.31,18.32-9.47,1.34,1.25-17.57c.08-1.1-.88-2-1.98-1.85l-8.55,1.21c-.81,.11-1.43,.78-1.49,1.6l-4.27,59.95c-.08,1.1,.88,2,1.98,1.85l8.55-1.21c.81-.11,1.43-.78,1.49-1.6l2.25-31.57Z"/><path class="b" d="M416.61,257.65l7.46-6.98c.32-.3,.51-.71,.55-1.15l3.45-48.46c.04-.59-.22-1.16-.69-1.51l-6.07-4.59c-.37-.28-.83-.4-1.29-.33l-18.01,2.55c-.36,.05-.69,.21-.95,.46l-7.38,6.97c-.32,.3-.51,.71-.54,1.14l-3.45,48.46c-.04,.59,.22,1.16,.69,1.51l6.07,4.59c.37,.28,.83,.4,1.29,.33l17.93-2.54c.35-.05,.68-.21,.94-.45Zm-11.65-50.2l10.81-1.53-2.98,41.81-10.81,1.53,2.98-41.81Z"/><path class="b" d="M461.91,200.64l3.22,41.81c.08,1,.98,1.73,1.98,1.59l4.18-.59c.72-.1,1.3-.64,1.45-1.35l9.6-43.95-3,42.04c-.08,1.1,.88,2,1.98,1.85l8.55-1.21c.81-.11,1.43-.78,1.49-1.6l4.27-59.95c.08-1.1-.88-2-1.98-1.85l-15.12,2.14c-.72,.1-1.29,.63-1.45,1.34l-5.55,24.6-1.91-22.82c-.08-1-.99-1.72-1.98-1.58l-15.06,2.13c-.81,.11-1.43,.78-1.49,1.6l-4.27,59.95c-.08,1.1,.88,2,1.98,1.85l8.55-1.21c.81-.11,1.43-.78,1.49-1.6l3.08-43.18Z"/><path class="b" d="M539.23,216.72l-12.54,1.77,1.47-20.62,8.16-1.15c.81-.11,1.43-.78,1.49-1.6l.52-7.33c.08-1.1-.88-2-1.98-1.85l-7.42,1.05,.74-10.31,13.11-1.86c.81-.11,1.43-.78,1.49-1.6l.52-7.25c.08-1.1-.88-2-1.98-1.85l-23.05,3.26c-.81,.11-1.43,.78-1.49,1.6l-4.27,59.95c-.08,1.1,.88,2,1.98,1.85l23.21-3.29c.81-.11,1.43-.78,1.49-1.6l.52-7.33c.08-1.1-.88-2-1.98-1.85Z"/><path class="b" d="M611.36,184.1l5.62-.79,3.4,21.36c.15,.94,1.02,1.58,1.96,1.45l9.29-1.31c1-.14,1.66-1.09,1.46-2.08l-4.57-21.86,5.73-5.84c.29-.29,.46-.68,.49-1.09l1.79-25.1c.04-.59-.22-1.16-.69-1.51l-6.07-4.59c-.37-.28-.83-.4-1.29-.33l-24.97,3.53c-.81,.11-1.43,.78-1.49,1.6l-4.27,59.95c-.08,1.1,.88,2,1.98,1.85l8.55-1.21c.81-.11,1.43-.78,1.49-1.6l1.6-22.41Zm2.06-28.88l10.81-1.53-1.28,18-10.81,1.53,1.28-18Z"/><path class="b" d="M683.53,190.83l7.46-6.98c.32-.3,.51-.71,.55-1.15l3.85-53.96c.08-1.1-.88-2-1.98-1.85l-8.55,1.21c-.81,.11-1.43,.78-1.49,1.6l-3.65,51.21-10.81,1.53,3.6-50.47c.08-1.1-.88-2-1.98-1.85l-8.55,1.21c-.81,.11-1.43,.78-1.49,1.6l-3.88,54.45c-.04,.58,.21,1.15,.68,1.5l5.99,4.59c.37,.28,.84,.41,1.3,.34l18.01-2.55c.35-.05,.68-.21,.94-.45Z"/><path class="b" d="M728.12,144.69l8.06,31.26c.22,.86,1.05,1.41,1.93,1.29l7.55-1.07c.81-.11,1.43-.78,1.49-1.6l4.27-59.95c.08-1.1-.88-2-1.98-1.85l-8.52,1.21c-.83,.12-1.45,.8-1.49,1.64l-1.47,30.28-7.46-28.88c-.22-.86-1.05-1.41-1.93-1.29l-9.06,1.28c-.81,.11-1.43,.78-1.49,1.6l-4.27,59.95c-.08,1.1,.88,2,1.98,1.85l8.55-1.21c.81-.11,1.43-.78,1.49-1.6l2.34-32.91Z"/></g><path class="b" d="M461.48,532.45c7.87,1.37,14.86-.18,20.77-4.59,8.42-6.29,20.38-21.15,26.96-77.43l.02-.17,.16-.04c50.89-14.04,94.39-25.64,136.46-36.85,49-13.06,95.28-25.39,151.13-40.99,56.98-15.91,77.67-37.67,92.57-67.62,13.44-27.02,6.37-44.03,.96-51.77-6.71-9.59-18.01-15-28.76-13.79-9.81,1.1-17.79,7.51-21.9,17.58-5.08,12.46-10.84,22.16-16.65,28.05-5.04,5.11-10.09,7.29-14.2,6.15-6.04-1.69-8.93-10.22-7.19-21.24,3.66-23.17,10.62-62.77,10.7-63.17l.03-.15,18.42-5.43c.9-.26,1.56-1.04,1.69-1.97l1.52-11.23c.11-.8-.19-1.6-.81-2.13-.62-.53-1.45-.71-2.22-.48l-16.83,4.94,.05-.38,7.95-56.7c.12-.84-.21-1.66-.87-2.19-.66-.53-1.54-.67-2.33-.37l-23.04,8.75c-.81,.31-1.39,1.03-1.51,1.89l-7.97,55.7-14.13,3.76c-.85,.23-1.5,.9-1.71,1.75l-2.75,11.59c-.2,.82,.05,1.67,.66,2.26,.61,.59,1.46,.82,2.27,.6l13.34-3.51-.07,.39-8.34,46.6c-1.52,7.02-5.38,18.3-10.59,27.7-4.68,8.45-12.28,18.69-21.97,19.51-2.51,.19-4.52-.53-5.98-2.12-4.78-5.2-2.65-18.59-1.62-25.03l.06-.35,10.93-67.26c.14-.88-.19-1.72-.89-2.27-.7-.54-1.6-.66-2.42-.3l-22.32,9.76c-.75,.33-1.28,1.01-1.4,1.82l-11.68,75.8c-1.59,11.89-10.22,22.6-18.84,23.4-2.2,.2-3.94-.34-5.18-1.62-3.24-3.35-2.29-10.82-1.72-15.28,.07-.54,.13-1.03,.18-1.46l10.43-77.5c.11-.84-.21-1.65-.88-2.18-.66-.53-1.53-.67-2.32-.37l-21.27,7.96c-.81,.3-1.39,1.01-1.52,1.86l-10.93,69.73c-4.34,14.75-13.94,21.51-26.34,18.57l-.26-.06,.08-.25c4.35-14.58,6.25-30.15,5.35-43.84-.94-14.33-4.76-25.5-11.04-32.31-5.84-6.32-13.47-8.53-22.69-6.55-1.29,.28-2.54,.67-3.81,1.22-13.38,4.88-25.39,16.61-34.73,33.92-8.26,15.29-13.86,34.3-15.38,52.15l-.03,.1c-7.14,13.35-14.02,23.75-20.67,33.8-3.32,5.02-6.46,9.76-9.58,14.77l-.58,.93,.12-1.09c4.16-38.16,11.98-97.52,14.28-114.8,.11-.83-.21-1.64-.87-2.17-.66-.53-1.53-.67-2.32-.37l-21.67,7.99c-.86,.31-1.46,1.1-1.55,2.01l-.96,10.12h-.5c-.18-2.22-1.37-5.39-4.16-7.65-2.57-2.08-5.98-2.91-9.87-2.41-25.43,3.29-43.59,35.89-50.29,66.73-1.48,6.57-3.25,17.5-3.79,28.49v.07c-5.57,16.12-12.88,24.68-21.74,25.43-2.51,.19-4.52-.53-5.98-2.12-4.78-5.2-2.65-18.59-1.62-25.03l.06-.35,10.93-67.27c.14-.88-.19-1.72-.89-2.27-.7-.54-1.6-.66-2.42-.3l-22.32,9.76c-.75,.33-1.28,1.01-1.4,1.82l-11.68,75.8c-1.59,11.89-10.22,22.6-18.84,23.4-2.2,.2-3.94-.34-5.18-1.62-3.23-3.35-2.29-10.81-1.72-15.27,.07-.54,.13-1.04,.18-1.46l10.43-77.5c.11-.84-.21-1.65-.88-2.18-.66-.53-1.53-.67-2.32-.37l-21.27,7.96c-.8,.3-1.39,1.01-1.52,1.86l-13.4,85.48c-.87,5.86-.74,11.25,.38,15.58,3.1,12.08,12.84,17.47,21.16,17.47h.1c11.38-.06,27.54-8.01,36.11-25.34l.22-.45,.22,.45c4.83,9.77,13.89,13.34,26.92,10.6,12.58-2.64,22.4-11.61,29.19-26.66l.23-.51,.23,.51c4,9.1,12.24,14.62,22.03,14.75,.12,0,.25,0,.37,0,11.16,0,21.4-7.03,26.81-18.43l.59-1.24-.11,1.37c-.01,.14-1.16,14.22-1.61,35.38v.19l-.19,.04c-49.41,11.86-99.55,23.73-142.08,33.78-20.59,4.86-36.29,13.28-46.66,25.02-8.6,9.73-11.31,19.38-12.16,24.27-.14,.79,.13,1.58,.72,2.13,.6,.55,1.43,.77,2.22,.56,31.8-8.2,57.07-.95,75.11,21.52,.57,.71,1.45,1.04,2.34,.85,.88-.17,1.55-.79,1.8-1.65,3.54-12.13,16.51-41.68,60.45-54.17,10.81-3.07,21.51-6.1,31.8-8.99l.6-.17-.53,.89c-.47,.8-.94,1.59-1.41,2.39-15.15,26.04-15.97,45.16-11.68,54.37,2.73,5.86,7.86,9.49,15.26,10.78Zm142.61-277.34l.1-.22,.22,.09c7.39,3.04,12.03,10.68,13.41,22.1,1.2,9.94-.12,22.13-3.72,34.34l-.12,.39-.3-.28c-11.46-10.92-20.85-32.25-9.59-56.43Zm-21.68,31.5l.33-.69,.15,.75c3.49,17.83,12.22,33.26,23.95,42.33l.17,.13-.1,.19c-5.45,10.21-11.85,16.61-18.02,18-1.04,.24-2.03,.35-2.97,.35-3.07,0-5.62-1.25-7.62-3.72-8.22-10.22-4.61-38.7,4.12-57.34Zm-69.31,121.4c3.03-4.6,6.16-9.31,9.36-14.12,8.49-12.76,17.26-25.95,25.95-39.87l.31-.5,.14,.57c2.51,9.87,7.12,17.04,13.35,20.73,5.5,3.25,12.24,3.88,20.05,1.86,16.45-4.26,30.95-18.34,40.81-39.65l.08-.18,.2,.04c5.04,1.12,9.67,1.27,15.01,.47,5.47-.82,10.42-2.76,14.68-5.77l.32-.22,.07,.38c.11,.56,.23,1.11,.36,1.63,2.16,8.44,9.65,17.47,21.02,17.47,.08,0,.16,0,.24,0,14.84-.17,30.01-13.01,36.11-25.34l.22-.45,.22,.45c4.83,9.77,13.89,13.34,26.92,10.6,14.19-2.98,26.09-13.66,34.42-30.9l.29-.6,.18,.64c1.5,5.47,4.89,9.83,9.8,12.62,6.36,3.6,14.97,4.28,23.62,1.86,23.79-6.66,34.8-29.78,42.84-46.66,1.14-2.39,2.22-4.65,3.26-6.73,2.98-5.9,7.49-9.43,12.36-9.68,3.94-.22,7.53,1.8,9.88,5.48,4.76,7.45,3.41,19.84-3.6,33.14-12.56,23.83-25.5,35.55-104.21,55.75-83.87,21.53-164.73,41.64-254.48,63.29l-.33,.08,.54-6.4Zm-41.68-34.38c-.2,.02-.4,.02-.59,.02-4.58,0-7.69-4.16-9.02-12.07-3.74-22.23,7.9-68.47,25.49-73.11,2.66-.7,5.12-.21,6.94,1.38,2.1,1.84,3.05,4.93,2.61,8.49-1.77,14.17-3.17,22.96-4.52,31.46-.38,2.38-.75,4.74-1.13,7.19-2.98,19.27-12.03,36.04-19.75,36.63Zm12.33,83.73l.47-.43-.05,.64c-1.7,21.65-6.39,46.8-14.46,52.46-1.11,.78-2.25,1.17-3.42,1.17-.49,0-.99-.07-1.49-.21-1.27-.35-2.12-1.37-2.52-3.02-2.39-9.84,12.23-42.03,21.48-50.6Z"/></g><path class="b" d="M290.43,257.65c-19.85-34.58-50.77-49.76-87.09-42.75-47.35,9.13-76.81,46.31-78.81,99.45-1.14,30.34,12.63,57.5,35.94,70.88,3.32,1.91,6.75,3.48,10.25,4.74-.42,4.25-.83,8.45-1.23,12.61-1.49,15.49-2.87,29.85-4.94,42.03-5.47-1.61-11.72-2.97-19.36-3.45-15.04-.95-27.41,5.34-33.96,17.29-6.28,11.47-5.65,25.79,1.56,35.63,3.65,4.98,11.61,12.27,26.93,12.27,3.39,0,7.15-.36,11.3-1.18,15.58-3.08,26.29-14.06,33.96-29.5,46.53,10.81,75.59-7.74,92.44-26.98,19.44-22.2,31.33-55.14,33.5-92.75,2.08-36.16-5.39-71.99-20.49-98.3Zm-85.97,134.76c9.75-1.84,19.58-5.79,29.09-11.82,1.83-1.16,2.95-3.13,3-5.27l.77-32.16c.02-.93-.53-1.72-1.4-2.02-.87-.3-1.82,0-2.37,.74-8.25,11.18-17.11,16.9-25.22,19.58,.28-2.21,.55-4.43,.82-6.66,3.97-32.23,8.08-65.56,20.67-90.28,.39-.76,.27-1.67-.29-2.31-.57-.65-1.47-.88-2.28-.59l-22.87,8.18c-1.94,.69-3.53,2.09-4.48,3.95-11.4,22.21-21.05,54.24-25.43,84.23-14.59-8.1-24.65-23.95-25.45-41.32-1.89-40.91,19.75-72.87,53.83-79.53,21.13-4.13,39.61,3.64,53.46,22.46,27.35,37.2,30.22,108.9,6.14,153.45-10.48,19.38-30.57,42.04-66.81,40.08-.72-.04-1.43-.09-2.13-.16,5.26-18.43,8.33-39.71,10.96-60.55Zm-61.52,71.45c4.23,.07,11.47,1.71,15.79,3.25-4.09,10.04-9.94,15.98-18.86,16.08-4.91,.05-8.57-1.57-10.31-4.58-1.47-2.54-1.36-5.74,.3-8.57,2.32-3.95,6.94-6.2,12.7-6.2,.12,0,.25,0,.38,0Z"/></svg>